<svg width="852" height="520" viewBox="0 0 852 520" fill="none" xmlns="http://www.w3.org/2000/svg">
<rect y="0.820801" width="245.243" height="43.8247" rx="8.7299" fill="#506BAE"/>
<path d="M99.8872 23.9848H103.076L101.507 19.0401L99.8872 23.9848ZM100.049 16.1671H103.016L107.466 28.7334H104.619L103.809 26.1502H99.1796L98.31 28.7334H95.5649L100.049 16.1671ZM114.423 22.7742C114.377 22.4275 114.261 22.1149 114.073 21.8364C113.8 21.4613 113.377 21.2738 112.803 21.2738C111.985 21.2738 111.425 21.6801 111.124 22.4929C110.964 22.9248 110.885 23.4989 110.885 24.215C110.885 24.897 110.964 25.4455 111.124 25.8604C111.413 26.6333 111.959 27.0198 112.76 27.0198C113.329 27.0198 113.732 26.8664 113.971 26.5594C114.21 26.2525 114.355 25.8547 114.406 25.3659H116.887C116.83 26.1048 116.563 26.8038 116.085 27.4631C115.324 28.5259 114.195 29.0574 112.701 29.0574C111.206 29.0574 110.106 28.614 109.401 27.7274C108.697 26.8408 108.344 25.6899 108.344 24.2747C108.344 22.6776 108.734 21.4358 109.512 20.5491C110.291 19.6625 111.365 19.2192 112.735 19.2192C113.9 19.2192 114.852 19.4806 115.591 20.0035C116.335 20.5264 116.776 21.45 116.912 22.7742H114.423ZM117.637 21.2567V19.5261H118.933V16.9344H121.337V19.5261H122.846V21.2567H121.337V26.1673C121.337 26.5481 121.385 26.7868 121.482 26.8834C121.578 26.9743 121.874 27.0198 122.368 27.0198C122.442 27.0198 122.519 27.0198 122.599 27.0198C122.684 27.0141 122.766 27.0084 122.846 27.0028V28.8187L121.695 28.8613C120.547 28.9011 119.763 28.7021 119.342 28.2645C119.069 27.986 118.933 27.5569 118.933 26.9772V21.2567H117.637ZM126.904 18.3325H124.44V16.0904H126.904V18.3325ZM124.44 19.4408H126.904V28.7334H124.44V19.4408ZM133.434 27.0198C134.145 27.0198 134.69 26.7669 135.071 26.2611C135.452 25.7552 135.642 25.0363 135.642 24.1042C135.642 23.1721 135.452 22.4559 135.071 21.9558C134.69 21.45 134.145 21.197 133.434 21.197C132.724 21.197 132.175 21.45 131.789 21.9558C131.408 22.4559 131.218 23.1721 131.218 24.1042C131.218 25.0363 131.408 25.7552 131.789 26.2611C132.175 26.7669 132.724 27.0198 133.434 27.0198ZM138.191 24.1042C138.191 25.4682 137.799 26.6362 137.015 27.6081C136.231 28.5743 135.04 29.0574 133.443 29.0574C131.846 29.0574 130.655 28.5743 129.871 27.6081C129.086 26.6362 128.694 25.4682 128.694 24.1042C128.694 22.7629 129.086 21.6006 129.871 20.6173C130.655 19.6341 131.846 19.1424 133.443 19.1424C135.04 19.1424 136.231 19.6341 137.015 20.6173C137.799 21.6006 138.191 22.7629 138.191 24.1042ZM145.088 19.2192C146.049 19.2192 146.833 19.4721 147.441 19.9779C148.055 20.4781 148.362 21.3107 148.362 22.4758V28.7334H145.873V23.0811C145.873 22.5923 145.807 22.2172 145.677 21.9558C145.438 21.4784 144.983 21.2397 144.312 21.2397C143.488 21.2397 142.923 21.5892 142.616 22.2883C142.457 22.6577 142.377 23.1294 142.377 23.7035V28.7334H139.956V19.4579H142.301V20.8134C142.613 20.336 142.909 19.9921 143.187 19.7818C143.687 19.4067 144.321 19.2192 145.088 19.2192Z" fill="#F4F0EA"/>
<rect x="287.013" y="1.91204" width="243.061" height="41.6423" rx="7.63866" stroke="#778894" stroke-width="2.18247"/>
<path d="M385.809 23.9848H388.997L387.428 19.0401L385.809 23.9848ZM385.971 16.1671H388.937L393.388 28.7334H390.54L389.73 26.1502H385.101L384.231 28.7334H381.486L385.971 16.1671ZM400.344 22.7742C400.299 22.4275 400.182 22.1149 399.995 21.8364C399.722 21.4613 399.298 21.2738 398.724 21.2738C397.906 21.2738 397.346 21.6801 397.045 22.4929C396.886 22.9248 396.806 23.4989 396.806 24.215C396.806 24.897 396.886 25.4455 397.045 25.8604C397.335 26.6333 397.88 27.0198 398.682 27.0198C399.25 27.0198 399.654 26.8664 399.892 26.5594C400.131 26.2525 400.276 25.8547 400.327 25.3659H402.808C402.751 26.1048 402.484 26.8038 402.007 27.4631C401.245 28.5259 400.117 29.0574 398.622 29.0574C397.127 29.0574 396.028 28.614 395.323 27.7274C394.618 26.8408 394.266 25.6899 394.266 24.2747C394.266 22.6776 394.655 21.4358 395.434 20.5491C396.212 19.6625 397.286 19.2192 398.656 19.2192C399.821 19.2192 400.773 19.4806 401.512 20.0035C402.257 20.5264 402.697 21.45 402.834 22.7742H400.344ZM403.558 21.2567V19.5261H404.854V16.9344H407.258V19.5261H408.767V21.2567H407.258V26.1673C407.258 26.5481 407.307 26.7868 407.403 26.8834C407.5 26.9743 407.795 27.0198 408.29 27.0198C408.364 27.0198 408.44 27.0198 408.52 27.0198C408.605 27.0141 408.688 27.0084 408.767 27.0028V28.8187L407.616 28.8613C406.468 28.9011 405.684 28.7021 405.263 28.2645C404.991 27.986 404.854 27.5569 404.854 26.9772V21.2567H403.558ZM412.825 18.3325H410.361V16.0904H412.825V18.3325ZM410.361 19.4408H412.825V28.7334H410.361V19.4408ZM419.356 27.0198C420.066 27.0198 420.612 26.7669 420.992 26.2611C421.373 25.7552 421.564 25.0363 421.564 24.1042C421.564 23.1721 421.373 22.4559 420.992 21.9558C420.612 21.45 420.066 21.197 419.356 21.197C418.645 21.197 418.097 21.45 417.71 21.9558C417.329 22.4559 417.139 23.1721 417.139 24.1042C417.139 25.0363 417.329 25.7552 417.71 26.2611C418.097 26.7669 418.645 27.0198 419.356 27.0198ZM424.113 24.1042C424.113 25.4682 423.721 26.6362 422.936 27.6081C422.152 28.5743 420.961 29.0574 419.364 29.0574C417.767 29.0574 416.576 28.5743 415.792 27.6081C415.008 26.6362 414.616 25.4682 414.616 24.1042C414.616 22.7629 415.008 21.6006 415.792 20.6173C416.576 19.6341 417.767 19.1424 419.364 19.1424C420.961 19.1424 422.152 19.6341 422.936 20.6173C423.721 21.6006 424.113 22.7629 424.113 24.1042ZM431.01 19.2192C431.97 19.2192 432.755 19.4721 433.363 19.9779C433.976 20.4781 434.283 21.3107 434.283 22.4758V28.7334H431.794V23.0811C431.794 22.5923 431.729 22.2172 431.598 21.9558C431.359 21.4784 430.905 21.2397 430.234 21.2397C429.41 21.2397 428.844 21.5892 428.537 22.2883C428.378 22.6577 428.299 23.1294 428.299 23.7035V28.7334H425.877V19.4579H428.222V20.8134C428.535 20.336 428.83 19.9921 429.109 19.7818C429.609 19.4067 430.242 19.2192 431.01 19.2192Z" fill="#778894"/>
<rect x="571.843" y="0.820801" width="273.613" height="43.8247" rx="8.7299" fill="#C5D5E0"/>
<path d="M693.979 16.1842H702.888V18.3922H696.588V21.2823H702.103V23.4648H696.588V28.7334H693.979V16.1842ZM706.878 19.4408V25.0419C706.878 25.5705 706.94 25.9684 707.065 26.2355C707.287 26.7072 707.722 26.9431 708.37 26.9431C709.199 26.9431 709.768 26.6078 710.075 25.9371C710.234 25.5734 710.313 25.0931 710.313 24.4963V19.4408H712.777V28.7334H710.416V27.4205C710.393 27.4489 710.336 27.5342 710.245 27.6763C710.154 27.8184 710.046 27.9434 709.921 28.0514C709.54 28.3924 709.171 28.6254 708.813 28.7504C708.46 28.8755 708.046 28.938 707.568 28.938C706.193 28.938 705.266 28.4435 704.789 27.4546C704.522 26.909 704.388 26.1048 704.388 25.0419V19.4408H706.878ZM717.611 28.7334H715.181V16.1671H717.611V28.7334ZM722.47 28.7334H720.041V16.1671H722.47V28.7334Z" fill="#506BAE"/>
<rect x="4.59326" y="80.1455" width="396" height="49" rx="7.5" fill="white"/>
<rect x="4.59326" y="80.1455" width="396" height="49" rx="7.5" stroke="#506BAE"/>
<path d="M24.0542 99.1689V100.536H20.187V110.646H18.6089V100.536H14.7417V99.1689H24.0542ZM29.6479 102.278H31.2026C31.0047 102.815 30.5646 104.039 29.8823 105.95C29.3719 107.388 28.9448 108.56 28.6011 109.466C27.7886 111.601 27.2157 112.903 26.8823 113.372C26.549 113.841 25.9761 114.075 25.1636 114.075C24.9657 114.075 24.812 114.067 24.7026 114.052C24.5985 114.036 24.4683 114.007 24.312 113.966V112.685C24.5568 112.752 24.7339 112.794 24.8433 112.81C24.9526 112.825 25.049 112.833 25.1323 112.833C25.3927 112.833 25.5828 112.789 25.7026 112.7C25.8276 112.617 25.9318 112.513 26.0151 112.388C26.0412 112.346 26.1349 112.132 26.2964 111.747C26.4578 111.362 26.575 111.075 26.6479 110.888L23.5542 102.278H25.1479L27.3901 109.091L29.6479 102.278ZM35.9526 109.7C36.6089 109.7 37.1532 109.427 37.5854 108.88C38.0229 108.328 38.2417 107.505 38.2417 106.411C38.2417 105.744 38.1453 105.172 37.9526 104.692C37.5881 103.771 36.9214 103.31 35.9526 103.31C34.9787 103.31 34.312 103.797 33.9526 104.771C33.7599 105.291 33.6636 105.953 33.6636 106.755C33.6636 107.401 33.7599 107.95 33.9526 108.403C34.3172 109.268 34.9839 109.7 35.9526 109.7ZM32.312 102.317H33.6792V103.427C33.9604 103.047 34.2677 102.752 34.6011 102.544C35.075 102.231 35.6323 102.075 36.2729 102.075C37.2209 102.075 38.0256 102.44 38.687 103.169C39.3485 103.893 39.6792 104.929 39.6792 106.278C39.6792 108.101 39.2026 109.403 38.2495 110.185C37.6453 110.679 36.9422 110.927 36.1401 110.927C35.5099 110.927 34.9813 110.789 34.5542 110.513C34.3042 110.356 34.0256 110.088 33.7183 109.708V113.981H32.312V102.317ZM44.812 102.091C45.4058 102.091 45.9813 102.231 46.5386 102.513C47.0959 102.789 47.5203 103.148 47.812 103.591C48.0933 104.013 48.2808 104.505 48.3745 105.067C48.4578 105.453 48.4995 106.067 48.4995 106.911H42.3667C42.3927 107.76 42.5933 108.442 42.9683 108.958C43.3433 109.468 43.924 109.724 44.7104 109.724C45.4448 109.724 46.0308 109.481 46.4683 108.997C46.7183 108.716 46.8953 108.39 46.9995 108.021H48.3823C48.3459 108.328 48.2235 108.672 48.0151 109.052C47.812 109.427 47.5828 109.734 47.3276 109.974C46.9006 110.39 46.3719 110.672 45.7417 110.817C45.4032 110.901 45.0203 110.942 44.5933 110.942C43.5516 110.942 42.6688 110.565 41.9448 109.81C41.2209 109.049 40.8589 107.987 40.8589 106.622C40.8589 105.278 41.2235 104.187 41.9526 103.349C42.6818 102.51 43.6349 102.091 44.812 102.091ZM47.0542 105.794C46.9969 105.185 46.8641 104.698 46.6558 104.333C46.2703 103.656 45.6271 103.317 44.7261 103.317C44.0802 103.317 43.5386 103.552 43.1011 104.021C42.6636 104.484 42.4318 105.075 42.4058 105.794H47.0542ZM54.687 99.1299H56.0933V103.411C56.4266 102.989 56.7261 102.692 56.9917 102.521C57.4448 102.224 58.0099 102.075 58.687 102.075C59.9006 102.075 60.7235 102.5 61.1558 103.349C61.3901 103.812 61.5073 104.455 61.5073 105.278V110.646H60.062V105.372C60.062 104.757 59.9839 104.307 59.8276 104.021C59.5724 103.562 59.0933 103.333 58.3901 103.333C57.8068 103.333 57.2782 103.534 56.8042 103.935C56.3302 104.336 56.0933 105.093 56.0933 106.208V110.646H54.687V99.1299ZM67.0776 102.091C67.6714 102.091 68.2469 102.231 68.8042 102.513C69.3615 102.789 69.786 103.148 70.0776 103.591C70.3589 104.013 70.5464 104.505 70.6401 105.067C70.7235 105.453 70.7651 106.067 70.7651 106.911H64.6323C64.6584 107.76 64.8589 108.442 65.2339 108.958C65.6089 109.468 66.1896 109.724 66.9761 109.724C67.7104 109.724 68.2964 109.481 68.7339 108.997C68.9839 108.716 69.161 108.39 69.2651 108.021H70.6479C70.6115 108.328 70.4891 108.672 70.2808 109.052C70.0776 109.427 69.8485 109.734 69.5933 109.974C69.1662 110.39 68.6375 110.672 68.0073 110.817C67.6688 110.901 67.286 110.942 66.8589 110.942C65.8172 110.942 64.9344 110.565 64.2104 109.81C63.4865 109.049 63.1245 107.987 63.1245 106.622C63.1245 105.278 63.4891 104.187 64.2183 103.349C64.9474 102.51 65.9006 102.091 67.0776 102.091ZM69.3198 105.794C69.2625 105.185 69.1297 104.698 68.9214 104.333C68.536 103.656 67.8927 103.317 66.9917 103.317C66.3459 103.317 65.8042 103.552 65.3667 104.021C64.9292 104.484 64.6974 105.075 64.6714 105.794H69.3198ZM72.5386 102.278H73.8745V103.724C73.9839 103.442 74.2521 103.101 74.6792 102.7C75.1063 102.294 75.5985 102.091 76.1558 102.091C76.1818 102.091 76.2261 102.093 76.2886 102.099C76.3511 102.104 76.4578 102.114 76.6089 102.13V103.614C76.5256 103.599 76.4474 103.588 76.3745 103.583C76.3068 103.578 76.2313 103.575 76.1479 103.575C75.4396 103.575 74.8953 103.804 74.5151 104.263C74.1349 104.716 73.9448 105.239 73.9448 105.833V110.646H72.5386V102.278ZM81.312 102.091C81.9058 102.091 82.4813 102.231 83.0386 102.513C83.5959 102.789 84.0203 103.148 84.312 103.591C84.5933 104.013 84.7808 104.505 84.8745 105.067C84.9578 105.453 84.9995 106.067 84.9995 106.911H78.8667C78.8927 107.76 79.0933 108.442 79.4683 108.958C79.8433 109.468 80.424 109.724 81.2104 109.724C81.9448 109.724 82.5308 109.481 82.9683 108.997C83.2183 108.716 83.3953 108.39 83.4995 108.021H84.8823C84.8459 108.328 84.7235 108.672 84.5151 109.052C84.312 109.427 84.0828 109.734 83.8276 109.974C83.4006 110.39 82.8719 110.672 82.2417 110.817C81.9032 110.901 81.5203 110.942 81.0933 110.942C80.0516 110.942 79.1688 110.565 78.4448 109.81C77.7209 109.049 77.3589 107.987 77.3589 106.622C77.3589 105.278 77.7235 104.187 78.4526 103.349C79.1818 102.51 80.1349 102.091 81.312 102.091ZM83.5542 105.794C83.4969 105.185 83.3641 104.698 83.1558 104.333C82.7703 103.656 82.1271 103.317 81.2261 103.317C80.5802 103.317 80.0386 103.552 79.6011 104.021C79.1636 104.484 78.9318 105.075 78.9058 105.794H83.5542Z" fill="#778894"/>
<rect x="4.59326" y="146.146" width="396" height="373" rx="7.5" fill="white"/>
<rect x="4.59326" y="146.146" width="396" height="373" rx="7.5" stroke="#506BAE"/>
<path d="M23.6636 160.169V161.536H19.7964V171.646H18.2183V161.536H14.3511V160.169H23.6636ZM29.2573 163.278H30.812C30.6141 163.815 30.174 165.039 29.4917 166.95C28.9813 168.388 28.5542 169.56 28.2104 170.466C27.3979 172.601 26.825 173.903 26.4917 174.372C26.1584 174.841 25.5854 175.075 24.7729 175.075C24.575 175.075 24.4214 175.067 24.312 175.052C24.2078 175.036 24.0776 175.007 23.9214 174.966V173.685C24.1662 173.752 24.3433 173.794 24.4526 173.81C24.562 173.825 24.6584 173.833 24.7417 173.833C25.0021 173.833 25.1922 173.789 25.312 173.7C25.437 173.617 25.5412 173.513 25.6245 173.388C25.6506 173.346 25.7443 173.132 25.9058 172.747C26.0672 172.362 26.1844 172.075 26.2573 171.888L23.1636 163.278H24.7573L26.9995 170.091L29.2573 163.278ZM35.562 170.7C36.2183 170.7 36.7625 170.427 37.1948 169.88C37.6323 169.328 37.8511 168.505 37.8511 167.411C37.8511 166.744 37.7547 166.172 37.562 165.692C37.1974 164.771 36.5308 164.31 35.562 164.31C34.5881 164.31 33.9214 164.797 33.562 165.771C33.3693 166.291 33.2729 166.953 33.2729 167.755C33.2729 168.401 33.3693 168.95 33.562 169.403C33.9266 170.268 34.5933 170.7 35.562 170.7ZM31.9214 163.317H33.2886V164.427C33.5698 164.047 33.8771 163.752 34.2104 163.544C34.6844 163.231 35.2417 163.075 35.8823 163.075C36.8302 163.075 37.6349 163.44 38.2964 164.169C38.9578 164.893 39.2886 165.929 39.2886 167.278C39.2886 169.101 38.812 170.403 37.8589 171.185C37.2547 171.679 36.5516 171.927 35.7495 171.927C35.1193 171.927 34.5907 171.789 34.1636 171.513C33.9136 171.356 33.6349 171.088 33.3276 170.708V174.981H31.9214V163.317ZM44.4214 163.091C45.0151 163.091 45.5907 163.231 46.1479 163.513C46.7052 163.789 47.1297 164.148 47.4214 164.591C47.7026 165.013 47.8901 165.505 47.9839 166.067C48.0672 166.453 48.1089 167.067 48.1089 167.911H41.9761C42.0021 168.76 42.2026 169.442 42.5776 169.958C42.9526 170.468 43.5334 170.724 44.3198 170.724C45.0542 170.724 45.6401 170.481 46.0776 169.997C46.3276 169.716 46.5047 169.39 46.6089 169.021H47.9917C47.9552 169.328 47.8328 169.672 47.6245 170.052C47.4214 170.427 47.1922 170.734 46.937 170.974C46.5099 171.39 45.9813 171.672 45.3511 171.817C45.0125 171.901 44.6297 171.942 44.2026 171.942C43.161 171.942 42.2782 171.565 41.5542 170.81C40.8302 170.049 40.4683 168.987 40.4683 167.622C40.4683 166.278 40.8328 165.187 41.562 164.349C42.2912 163.51 43.2443 163.091 44.4214 163.091ZM46.6636 166.794C46.6063 166.185 46.4735 165.698 46.2651 165.333C45.8797 164.656 45.2365 164.317 44.3354 164.317C43.6896 164.317 43.1479 164.552 42.7104 165.021C42.2729 165.484 42.0412 166.075 42.0151 166.794H46.6636ZM54.2964 160.13H55.7026V164.411C56.036 163.989 56.3354 163.692 56.6011 163.521C57.0542 163.224 57.6193 163.075 58.2964 163.075C59.5099 163.075 60.3328 163.5 60.7651 164.349C60.9995 164.812 61.1167 165.455 61.1167 166.278V171.646H59.6714V166.372C59.6714 165.757 59.5933 165.307 59.437 165.021C59.1818 164.562 58.7026 164.333 57.9995 164.333C57.4162 164.333 56.8875 164.534 56.4136 164.935C55.9396 165.336 55.7026 166.093 55.7026 167.208V171.646H54.2964V160.13ZM66.687 163.091C67.2808 163.091 67.8563 163.231 68.4136 163.513C68.9709 163.789 69.3953 164.148 69.687 164.591C69.9683 165.013 70.1558 165.505 70.2495 166.067C70.3328 166.453 70.3745 167.067 70.3745 167.911H64.2417C64.2677 168.76 64.4683 169.442 64.8433 169.958C65.2183 170.468 65.799 170.724 66.5854 170.724C67.3198 170.724 67.9058 170.481 68.3433 169.997C68.5933 169.716 68.7703 169.39 68.8745 169.021H70.2573C70.2209 169.328 70.0985 169.672 69.8901 170.052C69.687 170.427 69.4578 170.734 69.2026 170.974C68.7756 171.39 68.2469 171.672 67.6167 171.817C67.2782 171.901 66.8953 171.942 66.4683 171.942C65.4266 171.942 64.5438 171.565 63.8198 170.81C63.0959 170.049 62.7339 168.987 62.7339 167.622C62.7339 166.278 63.0985 165.187 63.8276 164.349C64.5568 163.51 65.5099 163.091 66.687 163.091ZM68.9292 166.794C68.8719 166.185 68.7391 165.698 68.5308 165.333C68.1453 164.656 67.5021 164.317 66.6011 164.317C65.9552 164.317 65.4136 164.552 64.9761 165.021C64.5386 165.484 64.3068 166.075 64.2808 166.794H68.9292ZM72.1479 163.278H73.4839V164.724C73.5933 164.442 73.8615 164.101 74.2886 163.7C74.7157 163.294 75.2078 163.091 75.7651 163.091C75.7912 163.091 75.8354 163.093 75.8979 163.099C75.9604 163.104 76.0672 163.114 76.2183 163.13V164.614C76.1349 164.599 76.0568 164.588 75.9839 164.583C75.9162 164.578 75.8407 164.575 75.7573 164.575C75.049 164.575 74.5047 164.804 74.1245 165.263C73.7443 165.716 73.5542 166.239 73.5542 166.833V171.646H72.1479V163.278ZM80.9214 163.091C81.5151 163.091 82.0907 163.231 82.6479 163.513C83.2052 163.789 83.6297 164.148 83.9214 164.591C84.2026 165.013 84.3901 165.505 84.4839 166.067C84.5672 166.453 84.6089 167.067 84.6089 167.911H78.4761C78.5021 168.76 78.7026 169.442 79.0776 169.958C79.4526 170.468 80.0334 170.724 80.8198 170.724C81.5542 170.724 82.1401 170.481 82.5776 169.997C82.8276 169.716 83.0047 169.39 83.1089 169.021H84.4917C84.4552 169.328 84.3328 169.672 84.1245 170.052C83.9214 170.427 83.6922 170.734 83.437 170.974C83.0099 171.39 82.4813 171.672 81.8511 171.817C81.5125 171.901 81.1297 171.942 80.7026 171.942C79.661 171.942 78.7782 171.565 78.0542 170.81C77.3302 170.049 76.9683 168.987 76.9683 167.622C76.9683 166.278 77.3328 165.187 78.062 164.349C78.7912 163.51 79.7443 163.091 80.9214 163.091ZM83.1636 166.794C83.1063 166.185 82.9735 165.698 82.7651 165.333C82.3797 164.656 81.7365 164.317 80.8354 164.317C80.1896 164.317 79.6479 164.552 79.2104 165.021C78.7729 165.484 78.5412 166.075 78.5151 166.794H83.1636Z" fill="#778894"/>
<rect x="451.093" y="79.6455" width="281" height="40" rx="8" fill="#E7DFD1"/>
<path d="M468.906 97.7939C468.906 97.195 468.747 96.7679 468.429 96.5127C468.117 96.2575 467.677 96.1299 467.109 96.1299H464.867V99.5205H467.109C467.677 99.5205 468.117 99.3825 468.429 99.1064C468.747 98.8304 468.906 98.3929 468.906 97.7939ZM471.289 97.7783C471.289 99.1377 470.945 100.099 470.257 100.661C469.57 101.224 468.588 101.505 467.312 101.505H464.867V105.646H462.476V94.1299H467.492C468.648 94.1299 469.57 94.4268 470.257 95.0205C470.945 95.6143 471.289 96.5335 471.289 97.7783ZM475.187 105.646H472.96V94.1299H475.187V105.646ZM482.062 101.505C481.921 101.593 481.778 101.666 481.632 101.724C481.492 101.776 481.296 101.825 481.046 101.872L480.546 101.966C480.078 102.049 479.742 102.151 479.539 102.271C479.195 102.474 479.023 102.789 479.023 103.216C479.023 103.596 479.127 103.872 479.335 104.044C479.549 104.211 479.807 104.294 480.109 104.294C480.588 104.294 481.028 104.153 481.429 103.872C481.835 103.591 482.046 103.078 482.062 102.333V101.505ZM480.71 100.466C481.122 100.414 481.416 100.349 481.593 100.271C481.911 100.135 482.07 99.9242 482.07 99.6377C482.07 99.2887 481.947 99.0492 481.703 98.9189C481.463 98.7835 481.109 98.7158 480.64 98.7158C480.114 98.7158 479.742 98.846 479.523 99.1064C479.367 99.2992 479.263 99.5596 479.21 99.8877H477.062C477.109 99.1429 477.317 98.5309 477.687 98.0518C478.276 97.3018 479.286 96.9268 480.718 96.9268C481.651 96.9268 482.479 97.1117 483.203 97.4814C483.927 97.8512 484.289 98.5492 484.289 99.5752V103.481C484.289 103.752 484.294 104.08 484.304 104.466C484.32 104.757 484.364 104.955 484.437 105.06C484.51 105.164 484.619 105.25 484.765 105.317V105.646H482.343C482.276 105.474 482.229 105.312 482.203 105.161C482.177 105.01 482.156 104.838 482.14 104.646C481.833 104.979 481.479 105.263 481.078 105.497C480.598 105.773 480.057 105.911 479.453 105.911C478.682 105.911 478.044 105.692 477.539 105.255C477.039 104.812 476.789 104.187 476.789 103.38C476.789 102.333 477.192 101.575 478 101.106C478.442 100.851 479.093 100.669 479.953 100.56L480.71 100.466ZM491.359 100.185C491.317 99.8669 491.21 99.5804 491.039 99.3252C490.789 98.9814 490.401 98.8096 489.875 98.8096C489.125 98.8096 488.611 99.182 488.335 99.9268C488.19 100.323 488.117 100.849 488.117 101.505C488.117 102.13 488.19 102.632 488.335 103.013C488.601 103.721 489.101 104.075 489.835 104.075C490.356 104.075 490.726 103.935 490.945 103.653C491.164 103.372 491.296 103.007 491.343 102.56H493.617C493.565 103.237 493.32 103.877 492.882 104.481C492.184 105.455 491.151 105.942 489.781 105.942C488.411 105.942 487.403 105.536 486.757 104.724C486.111 103.911 485.789 102.856 485.789 101.56C485.789 100.096 486.145 98.958 486.859 98.1455C487.572 97.333 488.557 96.9268 489.812 96.9268C490.88 96.9268 491.752 97.1663 492.429 97.6455C493.111 98.1247 493.515 98.971 493.64 100.185H491.359ZM498.539 98.7393C498.023 98.7393 497.622 98.9007 497.335 99.2236C497.054 99.5465 496.877 99.984 496.804 100.536H500.265C500.229 99.9476 500.049 99.5023 499.726 99.2002C499.408 98.8929 499.013 98.7393 498.539 98.7393ZM498.539 96.9033C499.247 96.9033 499.885 97.0361 500.453 97.3018C501.02 97.5674 501.489 97.9867 501.859 98.5596C502.192 99.0648 502.408 99.6507 502.507 100.317C502.565 100.708 502.588 101.271 502.578 102.005H496.75C496.781 102.859 497.049 103.458 497.554 103.802C497.861 104.015 498.231 104.122 498.664 104.122C499.122 104.122 499.494 103.992 499.781 103.731C499.937 103.591 500.075 103.396 500.195 103.146H502.468C502.411 103.651 502.148 104.164 501.679 104.685C500.95 105.513 499.929 105.927 498.617 105.927C497.533 105.927 496.578 105.578 495.75 104.88C494.921 104.182 494.507 103.047 494.507 101.474C494.507 99.9997 494.88 98.8695 495.625 98.083C496.375 97.2965 497.346 96.9033 498.539 96.9033ZM508.781 96.9111C509.307 96.9111 509.783 97.0023 510.21 97.1846C510.643 97.3669 510.997 97.6455 511.273 98.0205C511.507 98.3382 511.651 98.6663 511.703 99.0049C511.755 99.3382 511.781 99.8851 511.781 100.646V105.646H509.507V100.466C509.507 100.007 509.429 99.6377 509.273 99.3564C509.07 98.9606 508.684 98.7627 508.117 98.7627C507.528 98.7627 507.08 98.9606 506.773 99.3564C506.471 99.7471 506.32 100.307 506.32 101.036V105.646H504.101V94.1689H506.32V98.2393C506.643 97.7445 507.015 97.4007 507.437 97.208C507.864 97.0101 508.312 96.9111 508.781 96.9111ZM517.687 104.075C518.338 104.075 518.838 103.843 519.187 103.38C519.536 102.916 519.71 102.257 519.71 101.403C519.71 100.549 519.536 99.8929 519.187 99.4346C518.838 98.971 518.338 98.7393 517.687 98.7393C517.036 98.7393 516.533 98.971 516.179 99.4346C515.83 99.8929 515.656 100.549 515.656 101.403C515.656 102.257 515.83 102.916 516.179 103.38C516.533 103.843 517.036 104.075 517.687 104.075ZM522.046 101.403C522.046 102.653 521.687 103.724 520.968 104.614C520.25 105.5 519.158 105.942 517.695 105.942C516.231 105.942 515.14 105.5 514.421 104.614C513.703 103.724 513.343 102.653 513.343 101.403C513.343 100.174 513.703 99.109 514.421 98.208C515.14 97.307 516.231 96.8564 517.695 96.8564C519.158 96.8564 520.25 97.307 520.968 98.208C521.687 99.109 522.046 100.174 522.046 101.403ZM525.921 105.646H523.695V94.1299H525.921V105.646ZM531.242 96.9268C531.757 96.9268 532.216 97.0413 532.617 97.2705C533.018 97.4945 533.343 97.807 533.593 98.208V94.1455H535.851V105.646H533.687V104.466C533.369 104.971 533.007 105.338 532.601 105.567C532.195 105.797 531.69 105.911 531.085 105.911C530.091 105.911 529.252 105.51 528.57 104.708C527.893 103.901 527.554 102.867 527.554 101.606C527.554 100.153 527.888 99.0101 528.554 98.1768C529.226 97.3434 530.122 96.9268 531.242 96.9268ZM531.726 104.036C532.356 104.036 532.835 103.802 533.164 103.333C533.492 102.864 533.656 102.257 533.656 101.513C533.656 100.471 533.393 99.7262 532.867 99.2783C532.544 99.0075 532.169 98.8721 531.742 98.8721C531.091 98.8721 530.611 99.1195 530.304 99.6143C530.002 100.104 529.851 100.713 529.851 101.442C529.851 102.229 530.005 102.859 530.312 103.333C530.625 103.802 531.096 104.036 531.726 104.036ZM541.242 98.7393C540.726 98.7393 540.325 98.9007 540.039 99.2236C539.757 99.5465 539.58 99.984 539.507 100.536H542.968C542.932 99.9476 542.752 99.5023 542.429 99.2002C542.111 98.8929 541.716 98.7393 541.242 98.7393ZM541.242 96.9033C541.95 96.9033 542.588 97.0361 543.156 97.3018C543.723 97.5674 544.192 97.9867 544.562 98.5596C544.895 99.0648 545.111 99.6507 545.21 100.317C545.268 100.708 545.291 101.271 545.281 102.005H539.453C539.484 102.859 539.752 103.458 540.257 103.802C540.565 104.015 540.934 104.122 541.367 104.122C541.825 104.122 542.197 103.992 542.484 103.731C542.64 103.591 542.778 103.396 542.898 103.146H545.171C545.114 103.651 544.851 104.164 544.382 104.685C543.653 105.513 542.632 105.927 541.32 105.927C540.236 105.927 539.281 105.578 538.453 104.88C537.625 104.182 537.21 103.047 537.21 101.474C537.21 99.9997 537.583 98.8695 538.328 98.083C539.078 97.2965 540.049 96.9033 541.242 96.9033ZM551.414 96.9268C551.455 96.9268 551.489 96.9294 551.515 96.9346C551.546 96.9346 551.611 96.9372 551.71 96.9424V99.2236C551.57 99.208 551.445 99.1976 551.335 99.1924C551.226 99.1872 551.138 99.1846 551.07 99.1846C550.174 99.1846 549.572 99.4762 549.265 100.06C549.093 100.388 549.007 100.893 549.007 101.575V105.646H546.765V97.1299H548.89V98.6143C549.234 98.0465 549.533 97.6585 549.789 97.4502C550.205 97.1012 550.747 96.9268 551.414 96.9268Z" fill="#5C574F"/>
<rect x="451.093" y="135.646" width="281" height="40" rx="8" fill="#E7DFD1"/>
<path d="M466.984 157.505C466.843 157.593 466.7 157.666 466.554 157.724C466.414 157.776 466.218 157.825 465.968 157.872L465.468 157.966C465 158.049 464.664 158.151 464.46 158.271C464.117 158.474 463.945 158.789 463.945 159.216C463.945 159.596 464.049 159.872 464.257 160.044C464.471 160.211 464.729 160.294 465.031 160.294C465.51 160.294 465.95 160.153 466.351 159.872C466.757 159.591 466.968 159.078 466.984 158.333V157.505ZM465.632 156.466C466.044 156.414 466.338 156.349 466.515 156.271C466.833 156.135 466.992 155.924 466.992 155.638C466.992 155.289 466.869 155.049 466.625 154.919C466.385 154.784 466.031 154.716 465.562 154.716C465.036 154.716 464.664 154.846 464.445 155.106C464.289 155.299 464.184 155.56 464.132 155.888H461.984C462.031 155.143 462.239 154.531 462.609 154.052C463.197 153.302 464.208 152.927 465.64 152.927C466.572 152.927 467.401 153.112 468.125 153.481C468.848 153.851 469.21 154.549 469.21 155.575V159.481C469.21 159.752 469.216 160.08 469.226 160.466C469.242 160.757 469.286 160.955 469.359 161.06C469.432 161.164 469.541 161.25 469.687 161.317V161.646H467.265C467.197 161.474 467.151 161.312 467.125 161.161C467.098 161.01 467.078 160.838 467.062 160.646C466.755 160.979 466.401 161.263 466 161.497C465.52 161.773 464.979 161.911 464.375 161.911C463.604 161.911 462.966 161.692 462.46 161.255C461.96 160.812 461.71 160.187 461.71 159.38C461.71 158.333 462.114 157.575 462.921 157.106C463.364 156.851 464.015 156.669 464.875 156.56L465.632 156.466ZM473.468 161.646H471.242V150.13H473.468V161.646ZM479.007 154.739C478.492 154.739 478.091 154.901 477.804 155.224C477.523 155.547 477.346 155.984 477.273 156.536H480.734C480.697 155.948 480.518 155.502 480.195 155.2C479.877 154.893 479.481 154.739 479.007 154.739ZM479.007 152.903C479.716 152.903 480.354 153.036 480.921 153.302C481.489 153.567 481.958 153.987 482.328 154.56C482.661 155.065 482.877 155.651 482.976 156.317C483.033 156.708 483.057 157.271 483.046 158.005H477.218C477.25 158.859 477.518 159.458 478.023 159.802C478.33 160.015 478.7 160.122 479.132 160.122C479.591 160.122 479.963 159.992 480.25 159.731C480.406 159.591 480.544 159.396 480.664 159.146H482.937C482.88 159.651 482.617 160.164 482.148 160.685C481.419 161.513 480.398 161.927 479.085 161.927C478.002 161.927 477.046 161.578 476.218 160.88C475.39 160.182 474.976 159.047 474.976 157.474C474.976 156 475.348 154.869 476.093 154.083C476.843 153.297 477.815 152.903 479.007 152.903ZM483.718 161.646L486.625 157.333L483.843 153.146H486.57L487.992 155.614L489.382 153.146H492.031L489.234 157.294L492.14 161.646H489.367L487.898 159.091L486.421 161.646H483.718ZM495.195 158.927C495.242 159.323 495.343 159.604 495.5 159.771C495.776 160.067 496.286 160.216 497.031 160.216C497.468 160.216 497.815 160.151 498.07 160.021C498.33 159.89 498.46 159.695 498.46 159.435C498.46 159.185 498.356 158.994 498.148 158.864C497.94 158.734 497.166 158.51 495.828 158.192C494.864 157.953 494.184 157.653 493.789 157.294C493.393 156.94 493.195 156.429 493.195 155.763C493.195 154.976 493.502 154.302 494.117 153.739C494.736 153.172 495.606 152.888 496.726 152.888C497.789 152.888 498.653 153.101 499.32 153.528C499.992 153.95 500.377 154.682 500.476 155.724H498.25C498.218 155.437 498.138 155.211 498.007 155.044C497.763 154.742 497.346 154.591 496.757 154.591C496.273 154.591 495.927 154.666 495.718 154.817C495.515 154.968 495.414 155.146 495.414 155.349C495.414 155.604 495.523 155.789 495.742 155.903C495.96 156.023 496.734 156.229 498.062 156.521C498.947 156.729 499.611 157.044 500.054 157.466C500.492 157.893 500.71 158.427 500.71 159.067C500.71 159.911 500.395 160.601 499.765 161.138C499.14 161.669 498.171 161.935 496.859 161.935C495.52 161.935 494.531 161.653 493.89 161.091C493.255 160.523 492.937 159.802 492.937 158.927H495.195ZM511.882 152.942C512.257 152.942 512.627 153.015 512.992 153.161C513.356 153.307 513.687 153.562 513.984 153.927C514.223 154.224 514.385 154.588 514.468 155.021C514.52 155.307 514.546 155.726 514.546 156.278L514.531 161.646H512.25V156.224C512.25 155.901 512.197 155.635 512.093 155.427C511.895 155.031 511.531 154.833 511 154.833C510.385 154.833 509.96 155.088 509.726 155.599C509.606 155.869 509.546 156.195 509.546 156.575V161.646H507.304V156.575C507.304 156.07 507.252 155.703 507.148 155.474C506.96 155.062 506.593 154.856 506.046 154.856C505.411 154.856 504.984 155.062 504.765 155.474C504.645 155.708 504.585 156.057 504.585 156.521V161.646H502.328V153.146H504.492V154.388C504.768 153.945 505.028 153.63 505.273 153.442C505.705 153.109 506.265 152.942 506.953 152.942C507.604 152.942 508.13 153.086 508.531 153.372C508.854 153.638 509.098 153.979 509.265 154.396C509.557 153.896 509.919 153.528 510.351 153.294C510.809 153.06 511.32 152.942 511.882 152.942ZM518.89 152.114H516.632V150.06H518.89V152.114ZM516.632 153.13H518.89V161.646H516.632V153.13ZM520.179 154.794V153.208H521.367V150.833H523.57V153.208H524.953V154.794H523.57V159.294C523.57 159.643 523.614 159.862 523.703 159.95C523.791 160.034 524.062 160.075 524.515 160.075C524.583 160.075 524.653 160.075 524.726 160.075C524.804 160.07 524.88 160.065 524.953 160.06V161.724L523.898 161.763C522.846 161.799 522.127 161.617 521.742 161.216C521.492 160.961 521.367 160.567 521.367 160.036V154.794H520.179ZM531.078 152.911C531.604 152.911 532.08 153.002 532.507 153.185C532.94 153.367 533.294 153.646 533.57 154.021C533.804 154.338 533.947 154.666 534 155.005C534.052 155.338 534.078 155.885 534.078 156.646V161.646H531.804V156.466C531.804 156.007 531.726 155.638 531.57 155.356C531.367 154.961 530.981 154.763 530.414 154.763C529.825 154.763 529.377 154.961 529.07 155.356C528.768 155.747 528.617 156.307 528.617 157.036V161.646H526.398V150.169H528.617V154.239C528.94 153.744 529.312 153.401 529.734 153.208C530.161 153.01 530.609 152.911 531.078 152.911ZM544.398 154.552C544.398 154.276 544.315 154.044 544.148 153.856C543.981 153.669 543.757 153.575 543.476 153.575C542.934 153.575 542.468 153.914 542.078 154.591C541.687 155.263 541.492 155.914 541.492 156.544C541.492 156.924 541.578 157.231 541.75 157.466C541.927 157.7 542.174 157.817 542.492 157.817C543.049 157.817 543.505 157.396 543.859 156.552C544.218 155.703 544.398 155.036 544.398 154.552ZM541.992 158.966C541.361 158.966 540.835 158.739 540.414 158.286C539.997 157.833 539.789 157.2 539.789 156.388C539.789 155.445 540.109 154.562 540.75 153.739C541.39 152.916 542.177 152.505 543.109 152.505C543.656 152.505 544.08 152.656 544.382 152.958C544.611 153.192 544.765 153.461 544.843 153.763L545.125 152.778H546.601L545.601 156.169C545.523 156.445 545.466 156.651 545.429 156.786C545.398 156.916 545.382 157.031 545.382 157.13C545.382 157.286 545.434 157.435 545.539 157.575C545.643 157.711 545.809 157.778 546.039 157.778C546.486 157.778 546.934 157.487 547.382 156.903C547.835 156.315 548.062 155.536 548.062 154.567C548.062 153.135 547.447 152.106 546.218 151.481C545.447 151.086 544.58 150.888 543.617 150.888C541.846 150.888 540.424 151.429 539.351 152.513C538.382 153.492 537.898 154.666 537.898 156.036C537.898 157.557 538.466 158.763 539.601 159.653C540.606 160.44 541.833 160.833 543.281 160.833C544.27 160.833 545.195 160.651 546.054 160.286C546.523 160.093 547.007 159.82 547.507 159.466L547.695 159.333L548.265 160.208C547.526 160.781 546.723 161.218 545.859 161.521C545 161.817 544.106 161.966 543.179 161.966C541.018 161.966 539.343 161.294 538.156 159.95C537.171 158.836 536.679 157.515 536.679 155.989C536.679 154.281 537.294 152.833 538.523 151.646C539.815 150.39 541.468 149.763 543.484 149.763C545.125 149.763 546.484 150.192 547.562 151.052C548.697 151.958 549.265 153.161 549.265 154.661C549.265 155.843 548.906 156.859 548.187 157.708C547.468 158.552 546.648 158.974 545.726 158.974C545.247 158.974 544.877 158.838 544.617 158.567C544.361 158.297 544.234 158.018 544.234 157.731C544.234 157.695 544.234 157.656 544.234 157.614C544.239 157.567 544.244 157.518 544.25 157.466C544.052 157.841 543.83 158.14 543.585 158.364C543.143 158.765 542.611 158.966 541.992 158.966ZM555.429 159.817C555.95 159.817 556.39 159.622 556.75 159.231C557.109 158.836 557.289 158.208 557.289 157.349C557.289 156.541 557.117 155.927 556.773 155.505C556.434 155.083 555.979 154.872 555.406 154.872C554.625 154.872 554.085 155.239 553.789 155.974C553.632 156.364 553.554 156.846 553.554 157.419C553.554 157.914 553.638 158.354 553.804 158.739C554.106 159.458 554.648 159.817 555.429 159.817ZM554.875 152.927C555.302 152.927 555.674 152.992 555.992 153.122C556.533 153.346 556.971 153.757 557.304 154.356V153.13H559.468V161.208C559.468 162.307 559.283 163.135 558.914 163.692C558.278 164.651 557.059 165.13 555.257 165.13C554.169 165.13 553.281 164.916 552.593 164.489C551.906 164.062 551.526 163.424 551.453 162.575H553.875C553.937 162.836 554.039 163.023 554.179 163.138C554.419 163.341 554.822 163.442 555.39 163.442C556.192 163.442 556.729 163.174 557 162.638C557.177 162.294 557.265 161.716 557.265 160.903V160.356C557.052 160.721 556.822 160.994 556.578 161.177C556.135 161.515 555.559 161.685 554.851 161.685C553.757 161.685 552.882 161.302 552.226 160.536C551.575 159.765 551.25 158.724 551.25 157.411C551.25 156.146 551.565 155.083 552.195 154.224C552.825 153.359 553.718 152.927 554.875 152.927ZM571.07 152.942C571.445 152.942 571.815 153.015 572.179 153.161C572.544 153.307 572.875 153.562 573.171 153.927C573.411 154.224 573.572 154.588 573.656 155.021C573.708 155.307 573.734 155.726 573.734 156.278L573.718 161.646H571.437V156.224C571.437 155.901 571.385 155.635 571.281 155.427C571.083 155.031 570.718 154.833 570.187 154.833C569.572 154.833 569.148 155.088 568.914 155.599C568.794 155.869 568.734 156.195 568.734 156.575V161.646H566.492V156.575C566.492 156.07 566.44 155.703 566.335 155.474C566.148 155.062 565.781 154.856 565.234 154.856C564.598 154.856 564.171 155.062 563.953 155.474C563.833 155.708 563.773 156.057 563.773 156.521V161.646H561.515V153.146H563.679V154.388C563.955 153.945 564.216 153.63 564.46 153.442C564.893 153.109 565.453 152.942 566.14 152.942C566.791 152.942 567.317 153.086 567.718 153.372C568.041 153.638 568.286 153.979 568.453 154.396C568.744 153.896 569.106 153.528 569.539 153.294C569.997 153.06 570.507 152.942 571.07 152.942ZM580.484 157.505C580.343 157.593 580.2 157.666 580.054 157.724C579.914 157.776 579.718 157.825 579.468 157.872L578.968 157.966C578.5 158.049 578.164 158.151 577.96 158.271C577.617 158.474 577.445 158.789 577.445 159.216C577.445 159.596 577.549 159.872 577.757 160.044C577.971 160.211 578.229 160.294 578.531 160.294C579.01 160.294 579.45 160.153 579.851 159.872C580.257 159.591 580.468 159.078 580.484 158.333V157.505ZM579.132 156.466C579.544 156.414 579.838 156.349 580.015 156.271C580.333 156.135 580.492 155.924 580.492 155.638C580.492 155.289 580.369 155.049 580.125 154.919C579.885 154.784 579.531 154.716 579.062 154.716C578.536 154.716 578.164 154.846 577.945 155.106C577.789 155.299 577.684 155.56 577.632 155.888H575.484C575.531 155.143 575.739 154.531 576.109 154.052C576.697 153.302 577.708 152.927 579.14 152.927C580.072 152.927 580.901 153.112 581.625 153.481C582.348 153.851 582.71 154.549 582.71 155.575V159.481C582.71 159.752 582.716 160.08 582.726 160.466C582.742 160.757 582.786 160.955 582.859 161.06C582.932 161.164 583.041 161.25 583.187 161.317V161.646H580.765C580.697 161.474 580.651 161.312 580.625 161.161C580.598 161.01 580.578 160.838 580.562 160.646C580.255 160.979 579.901 161.263 579.5 161.497C579.02 161.773 578.479 161.911 577.875 161.911C577.104 161.911 576.466 161.692 575.96 161.255C575.46 160.812 575.21 160.187 575.21 159.38C575.21 158.333 575.614 157.575 576.421 157.106C576.864 156.851 577.515 156.669 578.375 156.56L579.132 156.466ZM586.984 152.114H584.726V150.06H586.984V152.114ZM584.726 153.13H586.984V161.646H584.726V153.13ZM591.421 161.646H589.195V150.13H591.421V161.646ZM593.562 159.317H595.929V161.646H593.562V159.317ZM603.14 156.185C603.098 155.867 602.992 155.58 602.82 155.325C602.57 154.981 602.182 154.81 601.656 154.81C600.906 154.81 600.393 155.182 600.117 155.927C599.971 156.323 599.898 156.849 599.898 157.505C599.898 158.13 599.971 158.632 600.117 159.013C600.382 159.721 600.882 160.075 601.617 160.075C602.138 160.075 602.507 159.935 602.726 159.653C602.945 159.372 603.078 159.007 603.125 158.56H605.398C605.346 159.237 605.101 159.877 604.664 160.481C603.966 161.455 602.932 161.942 601.562 161.942C600.192 161.942 599.184 161.536 598.539 160.724C597.893 159.911 597.57 158.856 597.57 157.56C597.57 156.096 597.927 154.958 598.64 154.146C599.354 153.333 600.338 152.927 601.593 152.927C602.661 152.927 603.533 153.166 604.21 153.646C604.893 154.125 605.296 154.971 605.421 156.185H603.14ZM610.781 160.075C611.432 160.075 611.932 159.843 612.281 159.38C612.63 158.916 612.804 158.257 612.804 157.403C612.804 156.549 612.63 155.893 612.281 155.435C611.932 154.971 611.432 154.739 610.781 154.739C610.13 154.739 609.627 154.971 609.273 155.435C608.924 155.893 608.75 156.549 608.75 157.403C608.75 158.257 608.924 158.916 609.273 159.38C609.627 159.843 610.13 160.075 610.781 160.075ZM615.14 157.403C615.14 158.653 614.781 159.724 614.062 160.614C613.343 161.5 612.252 161.942 610.789 161.942C609.325 161.942 608.234 161.5 607.515 160.614C606.796 159.724 606.437 158.653 606.437 157.403C606.437 156.174 606.796 155.109 607.515 154.208C608.234 153.307 609.325 152.856 610.789 152.856C612.252 152.856 613.343 153.307 614.062 154.208C614.781 155.109 615.14 156.174 615.14 157.403ZM626.257 152.942C626.632 152.942 627.002 153.015 627.367 153.161C627.731 153.307 628.062 153.562 628.359 153.927C628.598 154.224 628.76 154.588 628.843 155.021C628.895 155.307 628.921 155.726 628.921 156.278L628.906 161.646H626.625V156.224C626.625 155.901 626.572 155.635 626.468 155.427C626.27 155.031 625.906 154.833 625.375 154.833C624.76 154.833 624.335 155.088 624.101 155.599C623.981 155.869 623.921 156.195 623.921 156.575V161.646H621.679V156.575C621.679 156.07 621.627 155.703 621.523 155.474C621.335 155.062 620.968 154.856 620.421 154.856C619.786 154.856 619.359 155.062 619.14 155.474C619.02 155.708 618.96 156.057 618.96 156.521V161.646H616.703V153.146H618.867V154.388C619.143 153.945 619.403 153.63 619.648 153.442C620.08 153.109 620.64 152.942 621.328 152.942C621.979 152.942 622.505 153.086 622.906 153.372C623.229 153.638 623.473 153.979 623.64 154.396C623.932 153.896 624.294 153.528 624.726 153.294C625.184 153.06 625.695 152.942 626.257 152.942Z" fill="#5C574F"/>
<rect x="451.093" y="191.646" width="281" height="40" rx="8" fill="#E7DFD1"/>
<path d="M461.89 207.411L463.523 207.942V206.06H464.875V207.942L466.507 207.411L466.875 208.575L465.21 209.091L466.296 210.646L465.296 211.356L464.21 209.888L463.093 211.356L462.093 210.646L463.187 209.091L461.523 208.575L461.89 207.411ZM468.125 207.411L469.757 207.942V206.06H471.109V207.942L472.742 207.411L473.109 208.575L471.445 209.091L472.531 210.646L471.531 211.356L470.445 209.888L469.328 211.356L468.328 210.646L469.421 209.091L467.757 208.575L468.125 207.411ZM474.359 207.411L475.992 207.942V206.06H477.343V207.942L478.976 207.411L479.343 208.575L477.679 209.091L478.765 210.646L477.765 211.356L476.679 209.888L475.562 211.356L474.562 210.646L475.656 209.091L473.992 208.575L474.359 207.411ZM480.593 207.411L482.226 207.942V206.06H483.578V207.942L485.21 207.411L485.578 208.575L483.914 209.091L485 210.646L484 211.356L482.914 209.888L481.796 211.356L480.796 210.646L481.89 209.091L480.226 208.575L480.593 207.411ZM486.828 207.411L488.46 207.942V206.06H489.812V207.942L491.445 207.411L491.812 208.575L490.148 209.091L491.234 210.646L490.234 211.356L489.148 209.888L488.031 211.356L487.031 210.646L488.125 209.091L486.46 208.575L486.828 207.411ZM493.062 207.411L494.695 207.942V206.06H496.046V207.942L497.679 207.411L498.046 208.575L496.382 209.091L497.468 210.646L496.468 211.356L495.382 209.888L494.265 211.356L493.265 210.646L494.359 209.091L492.695 208.575L493.062 207.411ZM499.296 207.411L500.929 207.942V206.06H502.281V207.942L503.914 207.411L504.281 208.575L502.617 209.091L503.703 210.646L502.703 211.356L501.617 209.888L500.5 211.356L499.5 210.646L500.593 209.091L498.929 208.575L499.296 207.411ZM505.531 207.411L507.164 207.942V206.06H508.515V207.942L510.148 207.411L510.515 208.575L508.851 209.091L509.937 210.646L508.937 211.356L507.851 209.888L506.734 211.356L505.734 210.646L506.828 209.091L505.164 208.575L505.531 207.411Z" fill="#5C574F"/>
<rect x="451.093" y="247.646" width="281" height="40" rx="8" fill="#E7DFD1"/>
<path d="M467.21 269.505C467.07 269.593 466.927 269.666 466.781 269.724C466.64 269.776 466.445 269.825 466.195 269.872L465.695 269.966C465.226 270.049 464.89 270.151 464.687 270.271C464.343 270.474 464.171 270.789 464.171 271.216C464.171 271.596 464.276 271.872 464.484 272.044C464.697 272.211 464.955 272.294 465.257 272.294C465.736 272.294 466.177 272.153 466.578 271.872C466.984 271.591 467.195 271.078 467.21 270.333V269.505ZM465.859 268.466C466.27 268.414 466.565 268.349 466.742 268.271C467.059 268.135 467.218 267.924 467.218 267.638C467.218 267.289 467.096 267.049 466.851 266.919C466.611 266.784 466.257 266.716 465.789 266.716C465.263 266.716 464.89 266.846 464.671 267.106C464.515 267.299 464.411 267.56 464.359 267.888H462.21C462.257 267.143 462.466 266.531 462.835 266.052C463.424 265.302 464.434 264.927 465.867 264.927C466.799 264.927 467.627 265.112 468.351 265.481C469.075 265.851 469.437 266.549 469.437 267.575V271.481C469.437 271.752 469.442 272.08 469.453 272.466C469.468 272.757 469.513 272.955 469.585 273.06C469.658 273.164 469.768 273.25 469.914 273.317V273.646H467.492C467.424 273.474 467.377 273.312 467.351 273.161C467.325 273.01 467.304 272.838 467.289 272.646C466.981 272.979 466.627 273.263 466.226 273.497C465.747 273.773 465.205 273.911 464.601 273.911C463.83 273.911 463.192 273.692 462.687 273.255C462.187 272.812 461.937 272.187 461.937 271.38C461.937 270.333 462.341 269.575 463.148 269.106C463.591 268.851 464.242 268.669 465.101 268.56L465.859 268.466ZM473.695 273.646H471.468V262.13H473.695V273.646ZM479.234 266.739C478.718 266.739 478.317 266.901 478.031 267.224C477.75 267.547 477.572 267.984 477.5 268.536H480.96C480.924 267.948 480.744 267.502 480.421 267.2C480.104 266.893 479.708 266.739 479.234 266.739ZM479.234 264.903C479.942 264.903 480.58 265.036 481.148 265.302C481.716 265.567 482.184 265.987 482.554 266.56C482.888 267.065 483.104 267.651 483.203 268.317C483.26 268.708 483.283 269.271 483.273 270.005H477.445C477.476 270.859 477.744 271.458 478.25 271.802C478.557 272.015 478.927 272.122 479.359 272.122C479.817 272.122 480.19 271.992 480.476 271.731C480.632 271.591 480.77 271.396 480.89 271.146H483.164C483.106 271.651 482.843 272.164 482.375 272.685C481.645 273.513 480.625 273.927 479.312 273.927C478.229 273.927 477.273 273.578 476.445 272.88C475.617 272.182 475.203 271.047 475.203 269.474C475.203 268 475.575 266.869 476.32 266.083C477.07 265.297 478.041 264.903 479.234 264.903ZM483.945 273.646L486.851 269.333L484.07 265.146H486.796L488.218 267.614L489.609 265.146H492.257L489.46 269.294L492.367 273.646H489.593L488.125 271.091L486.648 273.646H483.945ZM495.421 270.927C495.468 271.323 495.57 271.604 495.726 271.771C496.002 272.067 496.513 272.216 497.257 272.216C497.695 272.216 498.041 272.151 498.296 272.021C498.557 271.89 498.687 271.695 498.687 271.435C498.687 271.185 498.583 270.994 498.375 270.864C498.166 270.734 497.393 270.51 496.054 270.192C495.091 269.953 494.411 269.653 494.015 269.294C493.619 268.94 493.421 268.429 493.421 267.763C493.421 266.976 493.729 266.302 494.343 265.739C494.963 265.172 495.833 264.888 496.953 264.888C498.015 264.888 498.88 265.101 499.546 265.528C500.218 265.95 500.604 266.682 500.703 267.724H498.476C498.445 267.437 498.364 267.211 498.234 267.044C497.989 266.742 497.572 266.591 496.984 266.591C496.5 266.591 496.153 266.666 495.945 266.817C495.742 266.968 495.64 267.146 495.64 267.349C495.64 267.604 495.75 267.789 495.968 267.903C496.187 268.023 496.96 268.229 498.289 268.521C499.174 268.729 499.838 269.044 500.281 269.466C500.718 269.893 500.937 270.427 500.937 271.067C500.937 271.911 500.622 272.601 499.992 273.138C499.367 273.669 498.398 273.935 497.085 273.935C495.747 273.935 494.757 273.653 494.117 273.091C493.481 272.523 493.164 271.802 493.164 270.927H495.421ZM512.109 264.942C512.484 264.942 512.854 265.015 513.218 265.161C513.583 265.307 513.914 265.562 514.21 265.927C514.45 266.224 514.611 266.588 514.695 267.021C514.747 267.307 514.773 267.726 514.773 268.278L514.757 273.646H512.476V268.224C512.476 267.901 512.424 267.635 512.32 267.427C512.122 267.031 511.757 266.833 511.226 266.833C510.611 266.833 510.187 267.088 509.953 267.599C509.833 267.869 509.773 268.195 509.773 268.575V273.646H507.531V268.575C507.531 268.07 507.479 267.703 507.375 267.474C507.187 267.062 506.82 266.856 506.273 266.856C505.638 266.856 505.21 267.062 504.992 267.474C504.872 267.708 504.812 268.057 504.812 268.521V273.646H502.554V265.146H504.718V266.388C504.994 265.945 505.255 265.63 505.5 265.442C505.932 265.109 506.492 264.942 507.179 264.942C507.83 264.942 508.356 265.086 508.757 265.372C509.08 265.638 509.325 265.979 509.492 266.396C509.783 265.896 510.145 265.528 510.578 265.294C511.036 265.06 511.546 264.942 512.109 264.942ZM519.117 264.114H516.859V262.06H519.117V264.114ZM516.859 265.13H519.117V273.646H516.859V265.13ZM520.406 266.794V265.208H521.593V262.833H523.796V265.208H525.179V266.794H523.796V271.294C523.796 271.643 523.841 271.862 523.929 271.95C524.018 272.034 524.289 272.075 524.742 272.075C524.809 272.075 524.88 272.075 524.953 272.075C525.031 272.07 525.106 272.065 525.179 272.06V273.724L524.125 273.763C523.072 273.799 522.354 273.617 521.968 273.216C521.718 272.961 521.593 272.567 521.593 272.036V266.794H520.406ZM531.304 264.911C531.83 264.911 532.307 265.002 532.734 265.185C533.166 265.367 533.52 265.646 533.796 266.021C534.031 266.338 534.174 266.666 534.226 267.005C534.278 267.338 534.304 267.885 534.304 268.646V273.646H532.031V268.466C532.031 268.007 531.953 267.638 531.796 267.356C531.593 266.961 531.208 266.763 530.64 266.763C530.052 266.763 529.604 266.961 529.296 267.356C528.994 267.747 528.843 268.307 528.843 269.036V273.646H526.625V262.169H528.843V266.239C529.166 265.744 529.539 265.401 529.96 265.208C530.388 265.01 530.835 264.911 531.304 264.911ZM544.625 266.552C544.625 266.276 544.541 266.044 544.375 265.856C544.208 265.669 543.984 265.575 543.703 265.575C543.161 265.575 542.695 265.914 542.304 266.591C541.914 267.263 541.718 267.914 541.718 268.544C541.718 268.924 541.804 269.231 541.976 269.466C542.153 269.7 542.401 269.817 542.718 269.817C543.276 269.817 543.731 269.396 544.085 268.552C544.445 267.703 544.625 267.036 544.625 266.552ZM542.218 270.966C541.588 270.966 541.062 270.739 540.64 270.286C540.223 269.833 540.015 269.2 540.015 268.388C540.015 267.445 540.335 266.562 540.976 265.739C541.617 264.916 542.403 264.505 543.335 264.505C543.882 264.505 544.307 264.656 544.609 264.958C544.838 265.192 544.992 265.461 545.07 265.763L545.351 264.778H546.828L545.828 268.169C545.75 268.445 545.692 268.651 545.656 268.786C545.625 268.916 545.609 269.031 545.609 269.13C545.609 269.286 545.661 269.435 545.765 269.575C545.869 269.711 546.036 269.778 546.265 269.778C546.713 269.778 547.161 269.487 547.609 268.903C548.062 268.315 548.289 267.536 548.289 266.567C548.289 265.135 547.674 264.106 546.445 263.481C545.674 263.086 544.807 262.888 543.843 262.888C542.072 262.888 540.651 263.429 539.578 264.513C538.609 265.492 538.125 266.666 538.125 268.036C538.125 269.557 538.692 270.763 539.828 271.653C540.833 272.44 542.059 272.833 543.507 272.833C544.497 272.833 545.421 272.651 546.281 272.286C546.75 272.093 547.234 271.82 547.734 271.466L547.921 271.333L548.492 272.208C547.752 272.781 546.95 273.218 546.085 273.521C545.226 273.817 544.333 273.966 543.406 273.966C541.244 273.966 539.57 273.294 538.382 271.95C537.398 270.836 536.906 269.515 536.906 267.989C536.906 266.281 537.52 264.833 538.75 263.646C540.041 262.39 541.695 261.763 543.71 261.763C545.351 261.763 546.71 262.192 547.789 263.052C548.924 263.958 549.492 265.161 549.492 266.661C549.492 267.843 549.132 268.859 548.414 269.708C547.695 270.552 546.875 270.974 545.953 270.974C545.473 270.974 545.104 270.838 544.843 270.567C544.588 270.297 544.46 270.018 544.46 269.731C544.46 269.695 544.46 269.656 544.46 269.614C544.466 269.567 544.471 269.518 544.476 269.466C544.278 269.841 544.057 270.14 543.812 270.364C543.369 270.765 542.838 270.966 542.218 270.966ZM555.656 271.817C556.177 271.817 556.617 271.622 556.976 271.231C557.335 270.836 557.515 270.208 557.515 269.349C557.515 268.541 557.343 267.927 557 267.505C556.661 267.083 556.205 266.872 555.632 266.872C554.851 266.872 554.312 267.239 554.015 267.974C553.859 268.364 553.781 268.846 553.781 269.419C553.781 269.914 553.864 270.354 554.031 270.739C554.333 271.458 554.875 271.817 555.656 271.817ZM555.101 264.927C555.528 264.927 555.901 264.992 556.218 265.122C556.76 265.346 557.197 265.757 557.531 266.356V265.13H559.695V273.208C559.695 274.307 559.51 275.135 559.14 275.692C558.505 276.651 557.286 277.13 555.484 277.13C554.395 277.13 553.507 276.916 552.82 276.489C552.132 276.062 551.752 275.424 551.679 274.575H554.101C554.164 274.836 554.265 275.023 554.406 275.138C554.645 275.341 555.049 275.442 555.617 275.442C556.419 275.442 556.955 275.174 557.226 274.638C557.403 274.294 557.492 273.716 557.492 272.903V272.356C557.278 272.721 557.049 272.994 556.804 273.177C556.361 273.515 555.786 273.685 555.078 273.685C553.984 273.685 553.109 273.302 552.453 272.536C551.802 271.765 551.476 270.724 551.476 269.411C551.476 268.146 551.791 267.083 552.421 266.224C553.052 265.359 553.945 264.927 555.101 264.927ZM571.296 264.942C571.671 264.942 572.041 265.015 572.406 265.161C572.77 265.307 573.101 265.562 573.398 265.927C573.638 266.224 573.799 266.588 573.882 267.021C573.934 267.307 573.96 267.726 573.96 268.278L573.945 273.646H571.664V268.224C571.664 267.901 571.611 267.635 571.507 267.427C571.309 267.031 570.945 266.833 570.414 266.833C569.799 266.833 569.375 267.088 569.14 267.599C569.02 267.869 568.96 268.195 568.96 268.575V273.646H566.718V268.575C566.718 268.07 566.666 267.703 566.562 267.474C566.375 267.062 566.007 266.856 565.46 266.856C564.825 266.856 564.398 267.062 564.179 267.474C564.059 267.708 564 268.057 564 268.521V273.646H561.742V265.146H563.906V266.388C564.182 265.945 564.442 265.63 564.687 265.442C565.119 265.109 565.679 264.942 566.367 264.942C567.018 264.942 567.544 265.086 567.945 265.372C568.268 265.638 568.513 265.979 568.679 266.396C568.971 265.896 569.333 265.528 569.765 265.294C570.223 265.06 570.734 264.942 571.296 264.942ZM578.304 264.114H576.046V262.06H578.304V264.114ZM576.046 265.13H578.304V273.646H576.046V265.13ZM585.164 269.505C585.023 269.593 584.88 269.666 584.734 269.724C584.593 269.776 584.398 269.825 584.148 269.872L583.648 269.966C583.179 270.049 582.843 270.151 582.64 270.271C582.296 270.474 582.125 270.789 582.125 271.216C582.125 271.596 582.229 271.872 582.437 272.044C582.651 272.211 582.908 272.294 583.21 272.294C583.69 272.294 584.13 272.153 584.531 271.872C584.937 271.591 585.148 271.078 585.164 270.333V269.505ZM583.812 268.466C584.223 268.414 584.518 268.349 584.695 268.271C585.013 268.135 585.171 267.924 585.171 267.638C585.171 267.289 585.049 267.049 584.804 266.919C584.565 266.784 584.21 266.716 583.742 266.716C583.216 266.716 582.843 266.846 582.625 267.106C582.468 267.299 582.364 267.56 582.312 267.888H580.164C580.21 267.143 580.419 266.531 580.789 266.052C581.377 265.302 582.388 264.927 583.82 264.927C584.752 264.927 585.58 265.112 586.304 265.481C587.028 265.851 587.39 266.549 587.39 267.575V271.481C587.39 271.752 587.395 272.08 587.406 272.466C587.421 272.757 587.466 272.955 587.539 273.06C587.611 273.164 587.721 273.25 587.867 273.317V273.646H585.445C585.377 273.474 585.33 273.312 585.304 273.161C585.278 273.01 585.257 272.838 585.242 272.646C584.934 272.979 584.58 273.263 584.179 273.497C583.7 273.773 583.158 273.911 582.554 273.911C581.783 273.911 581.145 273.692 580.64 273.255C580.14 272.812 579.89 272.187 579.89 271.38C579.89 270.333 580.294 269.575 581.101 269.106C581.544 268.851 582.195 268.669 583.054 268.56L583.812 268.466ZM591.648 273.646H589.421V262.13H591.648V273.646ZM593.789 271.317H596.156V273.646H593.789V271.317ZM603.367 268.185C603.325 267.867 603.218 267.58 603.046 267.325C602.796 266.981 602.408 266.81 601.882 266.81C601.132 266.81 600.619 267.182 600.343 267.927C600.197 268.323 600.125 268.849 600.125 269.505C600.125 270.13 600.197 270.632 600.343 271.013C600.609 271.721 601.109 272.075 601.843 272.075C602.364 272.075 602.734 271.935 602.953 271.653C603.171 271.372 603.304 271.007 603.351 270.56H605.625C605.572 271.237 605.328 271.877 604.89 272.481C604.192 273.455 603.158 273.942 601.789 273.942C600.419 273.942 599.411 273.536 598.765 272.724C598.119 271.911 597.796 270.856 597.796 269.56C597.796 268.096 598.153 266.958 598.867 266.146C599.58 265.333 600.565 264.927 601.82 264.927C602.888 264.927 603.76 265.166 604.437 265.646C605.119 266.125 605.523 266.971 605.648 268.185H603.367ZM611.007 272.075C611.658 272.075 612.158 271.843 612.507 271.38C612.856 270.916 613.031 270.257 613.031 269.403C613.031 268.549 612.856 267.893 612.507 267.435C612.158 266.971 611.658 266.739 611.007 266.739C610.356 266.739 609.854 266.971 609.5 267.435C609.151 267.893 608.976 268.549 608.976 269.403C608.976 270.257 609.151 270.916 609.5 271.38C609.854 271.843 610.356 272.075 611.007 272.075ZM615.367 269.403C615.367 270.653 615.007 271.724 614.289 272.614C613.57 273.5 612.479 273.942 611.015 273.942C609.552 273.942 608.46 273.5 607.742 272.614C607.023 271.724 606.664 270.653 606.664 269.403C606.664 268.174 607.023 267.109 607.742 266.208C608.46 265.307 609.552 264.856 611.015 264.856C612.479 264.856 613.57 265.307 614.289 266.208C615.007 267.109 615.367 268.174 615.367 269.403ZM621.687 264.927C622.567 264.927 623.286 265.159 623.843 265.622C624.406 266.08 624.687 266.843 624.687 267.911V273.646H622.406V268.466C622.406 268.018 622.346 267.674 622.226 267.435C622.007 266.997 621.591 266.778 620.976 266.778C620.221 266.778 619.703 267.099 619.421 267.739C619.276 268.078 619.203 268.51 619.203 269.036V273.646H616.984V265.146H619.132V266.388C619.419 265.95 619.69 265.635 619.945 265.442C620.403 265.099 620.984 264.927 621.687 264.927Z" fill="#5C574F"/>
<rect x="451.093" y="303.646" width="281" height="40" rx="8" fill="#E7DFD1"/>
<path d="M461.835 319.411L463.468 319.942V318.06H464.82V319.942L466.453 319.411L466.82 320.575L465.156 321.091L466.242 322.646L465.242 323.356L464.156 321.888L463.039 323.356L462.039 322.646L463.132 321.091L461.468 320.575L461.835 319.411ZM468.07 319.411L469.703 319.942V318.06H471.054V319.942L472.687 319.411L473.054 320.575L471.39 321.091L472.476 322.646L471.476 323.356L470.39 321.888L469.273 323.356L468.273 322.646L469.367 321.091L467.703 320.575L468.07 319.411ZM474.304 319.411L475.937 319.942V318.06H477.289V319.942L478.921 319.411L479.289 320.575L477.625 321.091L478.71 322.646L477.71 323.356L476.625 321.888L475.507 323.356L474.507 322.646L475.601 321.091L473.937 320.575L474.304 319.411ZM480.539 319.411L482.171 319.942V318.06H483.523V319.942L485.156 319.411L485.523 320.575L483.859 321.091L484.945 322.646L483.945 323.356L482.859 321.888L481.742 323.356L480.742 322.646L481.835 321.091L480.171 320.575L480.539 319.411ZM486.773 319.411L488.406 319.942V318.06H489.757V319.942L491.39 319.411L491.757 320.575L490.093 321.091L491.179 322.646L490.179 323.356L489.093 321.888L487.976 323.356L486.976 322.646L488.07 321.091L486.406 320.575L486.773 319.411ZM493.007 319.411L494.64 319.942V318.06H495.992V319.942L497.625 319.411L497.992 320.575L496.328 321.091L497.414 322.646L496.414 323.356L495.328 321.888L494.21 323.356L493.21 322.646L494.304 321.091L492.64 320.575L493.007 319.411ZM499.242 319.411L500.875 319.942V318.06H502.226V319.942L503.859 319.411L504.226 320.575L502.562 321.091L503.648 322.646L502.648 323.356L501.562 321.888L500.445 323.356L499.445 322.646L500.539 321.091L498.875 320.575L499.242 319.411ZM505.476 319.411L507.109 319.942V318.06H508.46V319.942L510.093 319.411L510.46 320.575L508.796 321.091L509.882 322.646L508.882 323.356L507.796 321.888L506.679 323.356L505.679 322.646L506.773 321.091L505.109 320.575L505.476 319.411ZM511.71 319.411L513.343 319.942V318.06H514.695V319.942L516.328 319.411L516.695 320.575L515.031 321.091L516.117 322.646L515.117 323.356L514.031 321.888L512.914 323.356L511.914 322.646L513.007 321.091L511.343 320.575L511.71 319.411ZM517.945 319.411L519.578 319.942V318.06H520.929V319.942L522.562 319.411L522.929 320.575L521.265 321.091L522.351 322.646L521.351 323.356L520.265 321.888L519.148 323.356L518.148 322.646L519.242 321.091L517.578 320.575L517.945 319.411ZM524.179 319.411L525.812 319.942V318.06H527.164V319.942L528.796 319.411L529.164 320.575L527.5 321.091L528.585 322.646L527.585 323.356L526.5 321.888L525.382 323.356L524.382 322.646L525.476 321.091L523.812 320.575L524.179 319.411ZM530.414 319.411L532.046 319.942V318.06H533.398V319.942L535.031 319.411L535.398 320.575L533.734 321.091L534.82 322.646L533.82 323.356L532.734 321.888L531.617 323.356L530.617 322.646L531.71 321.091L530.046 320.575L530.414 319.411ZM536.648 319.411L538.281 319.942V318.06H539.632V319.942L541.265 319.411L541.632 320.575L539.968 321.091L541.054 322.646L540.054 323.356L538.968 321.888L537.851 323.356L536.851 322.646L537.945 321.091L536.281 320.575L536.648 319.411ZM542.882 319.411L544.515 319.942V318.06H545.867V319.942L547.5 319.411L547.867 320.575L546.203 321.091L547.289 322.646L546.289 323.356L545.203 321.888L544.085 323.356L543.085 322.646L544.179 321.091L542.515 320.575L542.882 319.411ZM549.117 319.411L550.75 319.942V318.06H552.101V319.942L553.734 319.411L554.101 320.575L552.437 321.091L553.523 322.646L552.523 323.356L551.437 321.888L550.32 323.356L549.32 322.646L550.414 321.091L548.75 320.575L549.117 319.411ZM555.351 319.411L556.984 319.942V318.06H558.335V319.942L559.968 319.411L560.335 320.575L558.671 321.091L559.757 322.646L558.757 323.356L557.671 321.888L556.554 323.356L555.554 322.646L556.648 321.091L554.984 320.575L555.351 319.411ZM561.585 319.411L563.218 319.942V318.06H564.57V319.942L566.203 319.411L566.57 320.575L564.906 321.091L565.992 322.646L564.992 323.356L563.906 321.888L562.789 323.356L561.789 322.646L562.882 321.091L561.218 320.575L561.585 319.411Z" fill="#5C574F"/>
<rect x="781.093" y="83.6455" width="67" height="27" rx="13.5" fill="#C9D1E6" stroke="#506BAE" stroke-width="2"/>
<path d="M806.538 97.6025C806.538 104.782 800.718 110.603 793.538 110.603C786.358 110.603 780.538 104.782 780.538 97.6025C780.538 90.4228 786.358 84.6025 793.538 84.6025C800.718 84.6025 806.538 90.4228 806.538 97.6025Z" fill="#506BAE"/>
<path d="M814.406 101.927C815.359 101.927 816.114 101.575 816.671 100.872C817.234 100.169 817.515 99.1689 817.515 97.8721C817.515 96.5804 817.234 95.583 816.671 94.8799C816.114 94.1715 815.359 93.8174 814.406 93.8174C813.453 93.8174 812.692 94.1689 812.125 94.8721C811.557 95.5752 811.273 96.5752 811.273 97.8721C811.273 99.1689 811.557 100.169 812.125 100.872C812.692 101.575 813.453 101.927 814.406 101.927ZM819.921 97.8721C819.921 99.9398 819.341 101.523 818.179 102.622C817.309 103.518 816.052 103.966 814.406 103.966C812.76 103.966 811.502 103.518 810.632 102.622C809.466 101.523 808.882 99.9398 808.882 97.8721C808.882 95.7627 809.466 94.1794 810.632 93.1221C811.502 92.2262 812.76 91.7783 814.406 91.7783C816.052 91.7783 817.309 92.2262 818.179 93.1221C819.341 94.1794 819.921 95.7627 819.921 97.8721ZM821.765 92.1455H829.929V94.1689H824.156V96.8174H829.21V98.8174H824.156V103.646H821.765V92.1455ZM831.546 92.1455H839.71V94.1689H833.937V96.8174H838.992V98.8174H833.937V103.646H831.546V92.1455Z" fill="#506BAE"/>
<rect x="781.093" y="141.646" width="67" height="27" rx="13.5" fill="#C9D1E6" stroke="#8A9CC9" stroke-width="2"/>
<path d="M848.093 155.646C848.093 162.825 842.273 168.646 835.093 168.646C827.914 168.646 822.093 162.825 822.093 155.646C822.093 148.466 827.914 142.646 835.093 142.646C842.273 142.646 848.093 148.466 848.093 155.646Z" fill="#8A9CC9"/>
<path d="M797.406 159.927C798.359 159.927 799.114 159.575 799.671 158.872C800.234 158.169 800.515 157.169 800.515 155.872C800.515 154.58 800.234 153.583 799.671 152.88C799.114 152.172 798.359 151.817 797.406 151.817C796.453 151.817 795.692 152.169 795.125 152.872C794.557 153.575 794.273 154.575 794.273 155.872C794.273 157.169 794.557 158.169 795.125 158.872C795.692 159.575 796.453 159.927 797.406 159.927ZM802.921 155.872C802.921 157.94 802.341 159.523 801.179 160.622C800.309 161.518 799.052 161.966 797.406 161.966C795.76 161.966 794.502 161.518 793.632 160.622C792.466 159.523 791.882 157.94 791.882 155.872C791.882 153.763 792.466 152.179 793.632 151.122C794.502 150.226 795.76 149.778 797.406 149.778C799.052 149.778 800.309 150.226 801.179 151.122C802.341 152.179 802.921 153.763 802.921 155.872ZM804.726 150.13H807.25L811.835 158.169V150.13H814.078V161.646H811.671L806.968 153.466V161.646H804.726V150.13Z" fill="#8A9CC9"/>
<circle cx="814.593" cy="220.646" r="20" fill="#506BAE"/>
<circle cx="814.593" cy="293.646" r="20" fill="#506BAE"/>
<circle cx="814.593" cy="293.646" r="12" fill="#C9D1E6"/>
</svg>
