<svg width="126" height="195" viewBox="0 0 126 195" fill="none" xmlns="http://www.w3.org/2000/svg">
<ellipse cx="63" cy="33.5" rx="34" ry="33.5" fill="#F4F0EA"/>
<path d="M48.1597 50.3742C46.8804 50.3742 45.8433 49.4858 45.8433 48.3902V16.9313C45.8433 16.1 46.4485 15.356 47.3564 15.0698C48.267 14.7809 49.2876 15.0099 49.9177 15.6394C49.9452 15.6667 49.9727 15.6939 50.0002 15.7212L60.4736 26.2002C60.9138 26.6417 60.7845 27.3667 60.2315 27.6583C59.5823 27.999 59.0183 28.4405 58.5286 28.9774C58.171 29.3671 57.5602 29.3889 57.1861 29.0155L52.0525 23.8782C51.472 23.2977 50.4761 23.7038 50.4761 24.5214V48.3929C50.4761 49.4885 49.439 50.377 48.1597 50.377V50.3742Z" fill="#8A9CC9"/>
<path d="M79.1071 49.6981C78.444 49.6981 77.7948 49.461 77.3464 49.0277C77.3188 49.0004 77.2913 48.9759 77.2638 48.9486L67.0132 39.0555C66.617 38.674 66.7793 38.0281 67.2993 37.84C68.1549 37.5293 68.9335 36.8344 69.2361 36.1694C69.3681 35.8805 69.745 35.8042 69.9761 36.0249L76.1716 42.0044C76.4027 42.2279 76.7906 42.0644 76.7906 41.7455V17.5333C76.7906 16.4759 77.8278 15.6201 79.1071 15.6201C80.3863 15.6201 81.4235 16.4759 81.4235 17.5333V47.7849C81.4235 48.5862 80.8182 49.3029 79.9104 49.5809C79.649 49.66 79.3767 49.7008 79.1071 49.7008V49.6981Z" fill="#8A9CC9"/>
<path d="M63.9811 37.7006C66.792 37.7006 69.0707 35.4432 69.0707 32.6586C69.0707 29.874 66.792 27.6167 63.9811 27.6167C61.1703 27.6167 58.8916 29.874 58.8916 32.6586C58.8916 35.4432 61.1703 37.7006 63.9811 37.7006Z" fill="#C9D1E6"/>
<path d="M46.4859 52.4729C45.2066 52.4729 44.1694 51.5844 44.1694 50.4888V19.0299C44.1694 18.1987 44.7747 17.4546 45.6825 17.1685C46.5932 16.8796 47.6138 17.1085 48.2438 17.7381C48.2713 17.7653 48.2988 17.7926 48.3264 17.8198L58.7998 28.2989C59.24 28.7404 59.1107 29.4653 58.5577 29.7569C57.9085 30.0976 57.3445 30.5391 56.8548 31.076C56.4971 31.4657 55.8864 31.4876 55.5122 31.1142L50.3787 25.9769C49.7982 25.3964 48.8023 25.8024 48.8023 26.62V50.4915C48.8023 51.5871 47.7651 52.4756 46.4859 52.4756V52.4729Z" fill="#152560"/>
<path d="M77.3732 51.7972C76.7102 51.7972 76.0609 51.5601 75.6125 51.1268C75.585 51.0995 75.5574 51.075 75.5299 51.0477L65.2793 41.1547C64.8831 40.7731 65.0455 40.1272 65.5654 39.9392C66.421 39.6285 67.1996 38.9335 67.5022 38.2685C67.6343 37.9796 68.0112 37.9033 68.2422 38.1241L74.4377 44.1035C74.6688 44.327 75.0567 44.1635 75.0567 43.8446V19.6324C75.0567 18.575 76.0939 17.7192 77.3732 17.7192C78.6524 17.7192 79.6896 18.575 79.6896 19.6324V49.884C79.6896 50.6853 79.0844 51.402 78.1765 51.68C77.9151 51.7591 77.6428 51.7999 77.3732 51.7999V51.7972Z" fill="#152560"/>
<path d="M62.0612 39.7997C64.8721 39.7997 67.1508 37.5423 67.1508 34.7578C67.1508 31.9732 64.8721 29.7158 62.0612 29.7158C59.2503 29.7158 56.9717 31.9732 56.9717 34.7578C56.9717 37.5423 59.2503 39.7997 62.0612 39.7997Z" fill="#8A9CC9"/>
<path d="M47.7522 107H42.0039L30.7687 87.4596V107H25.4123V79.4905H31.4405L42.3958 98.6949V79.4905H47.7522V107ZM53.4631 88.8594C54.8691 87.0677 57.2828 86.1719 60.7044 86.1719C62.9316 86.1719 64.9099 86.6136 66.6393 87.497C68.3688 88.3804 69.2335 90.0476 69.2335 92.4987V101.83C69.2335 102.477 69.246 103.261 69.2708 104.182C69.3082 104.879 69.4139 105.351 69.5881 105.6C69.7623 105.849 70.0236 106.054 70.372 106.216V107H64.5864C64.4246 106.589 64.3126 106.204 64.2504 105.843C64.1882 105.482 64.1385 105.071 64.1011 104.611C63.367 105.407 62.521 106.086 61.5629 106.645C60.4183 107.305 59.1243 107.635 57.681 107.635C55.8396 107.635 54.3154 107.112 53.1085 106.067C51.9141 105.009 51.3168 103.516 51.3168 101.588C51.3168 99.0868 52.2811 97.2765 54.2096 96.1567C55.2672 95.547 56.8225 95.1115 58.8754 94.8503L60.6858 94.6263C61.6687 94.5019 62.3717 94.3464 62.7947 94.1597C63.5537 93.8362 63.9332 93.3323 63.9332 92.648C63.9332 91.8144 63.6408 91.242 63.056 90.931C62.4837 90.6075 61.6376 90.4457 60.5178 90.4457C59.2611 90.4457 58.3715 90.7568 57.849 91.3789C57.4757 91.8393 57.2269 92.4614 57.1024 93.2452H51.9701C52.082 91.466 52.5797 90.0041 53.4631 88.8594ZM57.4197 103.155C57.9174 103.566 58.5271 103.771 59.2487 103.771C60.3934 103.771 61.4447 103.435 62.4028 102.763C63.3733 102.092 63.8772 100.866 63.9145 99.0868V97.1085C63.5786 97.32 63.2364 97.4942 62.888 97.6311C62.5521 97.7555 62.0855 97.8737 61.4883 97.9857L60.2938 98.2096C59.174 98.4087 58.3715 98.6513 57.8863 98.9375C57.0651 99.4227 56.6545 100.175 56.6545 101.196C56.6545 102.104 56.9096 102.757 57.4197 103.155ZM71.977 86.6571H77.9492L82.1858 101.662L86.5156 86.6571H92.2266L84.8919 107H79.2743L71.977 86.6571ZM100.718 86.6571V107H95.3246V86.6571H100.718ZM100.718 79.3225V84.2309H95.3246V79.3225H100.718Z" fill="white"/>
</svg>
