<svg width="33" height="34" viewBox="0 0 33 34" fill="none" xmlns="http://www.w3.org/2000/svg">
<circle cx="16.5" cy="17" r="16.5" fill="#F4F0EA"/>
<path d="M9.29801 25.3112C8.67719 25.3112 8.17386 24.8736 8.17386 24.3339V8.83925C8.17386 8.42983 8.46758 8.06337 8.90816 7.92243C9.35008 7.78014 9.8454 7.89289 10.1511 8.20298C10.1645 8.2164 10.1778 8.22982 10.1912 8.24325L15.2739 13.4046C15.4875 13.622 15.4248 13.9791 15.1564 14.1227C14.8413 14.2905 14.5676 14.508 14.33 14.7724C14.1564 14.9644 13.86 14.9751 13.6785 14.7912L11.1872 12.2609C10.9055 11.975 10.4222 12.175 10.4222 12.5777V24.3353C10.4222 24.8749 9.91883 25.3125 9.29801 25.3125V25.3112Z" fill="#8A9CC9"/>
<path d="M24.3165 24.9783C23.9947 24.9783 23.6797 24.8615 23.462 24.6481C23.4487 24.6346 23.4353 24.6226 23.422 24.6091L18.4474 19.7364C18.2552 19.5485 18.3339 19.2304 18.5863 19.1377C19.0015 18.9847 19.3793 18.6424 19.5262 18.3149C19.5903 18.1726 19.7732 18.135 19.8853 18.2437L22.8919 21.1888C23.0041 21.2989 23.1923 21.2184 23.1923 21.0613V9.13593C23.1923 8.6151 23.6957 8.1936 24.3165 8.1936C24.9373 8.1936 25.4406 8.6151 25.4406 9.13593V24.036C25.4406 24.4306 25.1469 24.7836 24.7063 24.9206C24.5795 24.9595 24.4473 24.9796 24.3165 24.9796V24.9783Z" fill="#8A9CC9"/>
<path d="M16.9762 19.0692C18.3403 19.0692 19.4461 17.9574 19.4461 16.5859C19.4461 15.2144 18.3403 14.1025 16.9762 14.1025C15.6121 14.1025 14.5062 15.2144 14.5062 16.5859C14.5062 17.9574 15.6121 19.0692 16.9762 19.0692Z" fill="#C9D1E6"/>
<path d="M8.48569 26.3451C7.86487 26.3451 7.36154 25.9075 7.36154 25.3679V9.87318C7.36154 9.46377 7.65526 9.09731 8.09584 8.95636C8.53776 8.81407 9.03308 8.92683 9.33882 9.23691C9.35217 9.25033 9.36552 9.26376 9.37887 9.27718L14.4616 14.4385C14.6752 14.656 14.6124 15.013 14.3441 15.1567C14.029 15.3244 13.7553 15.5419 13.5177 15.8063C13.3441 15.9983 13.0477 16.009 12.8661 15.8251L10.3749 13.2948C10.0931 13.0089 9.60984 13.2089 9.60984 13.6116V25.3692C9.60984 25.9088 9.10651 26.3464 8.48569 26.3464V26.3451Z" fill="#506BAE"/>
<path d="M23.4751 26.0122C23.1534 26.0122 22.8383 25.8954 22.6207 25.682C22.6073 25.6686 22.594 25.6565 22.5806 25.6431L17.606 20.7704C17.4138 20.5824 17.4926 20.2643 17.7449 20.1717C18.1601 20.0187 18.5379 19.6764 18.6848 19.3488C18.7489 19.2065 18.9318 19.1689 19.0439 19.2777L22.0506 22.2228C22.1627 22.3329 22.351 22.2523 22.351 22.0953V10.1699C22.351 9.64904 22.8543 9.22754 23.4751 9.22754C24.0959 9.22754 24.5993 9.64904 24.5993 10.1699V25.0699C24.5993 25.4645 24.3056 25.8176 23.865 25.9545C23.7381 25.9934 23.606 26.0136 23.4751 26.0136V26.0122Z" fill="#506BAE"/>
<path d="M16.0444 20.1032C17.4085 20.1032 18.5143 18.9913 18.5143 17.6198C18.5143 16.2483 17.4085 15.1365 16.0444 15.1365C14.6803 15.1365 13.5745 16.2483 13.5745 17.6198C13.5745 18.9913 14.6803 20.1032 16.0444 20.1032Z" fill="#8A9CC9"/>
</svg>
